<?xml version="1.0" encoding="UTF-8"?>
<!DOCTYPE svg PUBLIC "-//W3C//DTD SVG 1.0//EN" "http://www.w3.org/TR/2001/REC-SVG-20010904/DTD/svg10.dtd">
<!-- Creator: CorelDRAW -->
<svg xmlns="http://www.w3.org/2000/svg" xml:space="preserve" width="1.70667in" height="1.26721in" version="1.0" style="shape-rendering:geometricPrecision; text-rendering:geometricPrecision; image-rendering:optimizeQuality; fill-rule:evenodd; clip-rule:evenodd"
viewBox="0 0 770.19 571.87"
 xmlns:xlink="http://www.w3.org/1999/xlink"
 xmlns:xodm="http://www.corel.com/coreldraw/odm/2003">
 <defs>
  <style type="text/css">
   <![CDATA[
    .str0 {stroke:black;stroke-width:3.01;stroke-miterlimit:2.61313}
    .fil5 {fill:none}
    .fil6 {fill:black}
    .fil2 {fill:#874CCC}
    .fil0 {fill:#874CCC;fill-rule:nonzero}
    .fil8 {fill:#C65BCF;fill-rule:nonzero}
    .fil1 {fill:#F27BBD;fill-rule:nonzero}
    .fil7 {fill:#FF9CD2;fill-opacity:0.341176}
    .fil3 {fill:url(#id1)}
    .fil4 {fill:url(#id2);fill-rule:nonzero}
   ]]>
  </style>
   <clipPath id="id0">
    <path d="M286.63 168.47c68.48,0 124,55.52 124,124 0,68.48 -55.51,124 -124,124 -68.48,0 -124,-55.52 -124,-124 0,-68.49 55.52,-124 124,-124z"/>
   </clipPath>
  <radialGradient id="id1" gradientUnits="userSpaceOnUse" gradientTransform="matrix(1.10613 -5.99796E-05 4.22459E-05 1.17783 -30 -51)" cx="286.62" cy="285.03" r="124" fx="286.62" fy="285.03">
   <stop offset="0" style="stop-opacity:1; stop-color:#F27BBD"/>
   <stop offset="1" style="stop-opacity:1; stop-color:#C65BCF"/>
  </radialGradient>
  <radialGradient id="id2" gradientUnits="userSpaceOnUse" gradientTransform="matrix(1.00454 -4.52914E-05 4.52914E-05 1.00456 -1 -1)" cx="286.62" cy="292.47" r="163.41" fx="286.62" fy="292.47">
   <stop offset="0" style="stop-opacity:1; stop-color:#F27BBD"/>
   <stop offset="1" style="stop-opacity:1; stop-color:#B346BD"/>
  </radialGradient>
 </defs>
 <g id="Layer_x0020_1">
  <metadata id="CorelCorpID_0Corel-Layer"/>
  <path class="fil0" d="M396.17 353.22l146.29 149.09 112.53 0 0 4.69 -114.48 0 -147.67 -150.5 3.33 -3.28z"/>
  <path class="fil1" d="M514.59 467.89l-15.09 25.6c-2.23,3.79 -5.25,6.77 -8.8,8.8 -3.57,2.03 -7.66,3.12 -12.05,3.12l-11.93 0c-2.09,0 -4.01,0.28 -5.82,0.84 -1.82,0.57 -3.57,1.44 -5.27,2.61l-29.82 20.59c-2.1,1.45 -4.26,2.53 -6.53,3.23 -2.28,0.71 -4.67,1.06 -7.21,1.06l-92.2 0c-3.39,0 -6.56,-0.63 -9.5,-1.87 -2.91,-1.24 -5.56,-3.08 -7.91,-5.53l-59.58 -61.98 273.78 0 -2.08 3.52zm-19.11 23.24l13.01 -22.08 -254.63 0 51.96 54.06c1.9,1.98 4.04,3.48 6.37,4.47 2.33,0.99 4.9,1.49 7.67,1.49l92.2 0c2.09,0 4.01,-0.27 5.82,-0.84 1.82,-0.57 3.57,-1.43 5.27,-2.61l29.82 -20.59c2.1,-1.45 4.26,-2.52 6.53,-3.23 2.29,-0.71 4.67,-1.06 7.21,-1.06l11.93 0c3.57,0 6.88,-0.87 9.73,-2.49 2.86,-1.64 5.29,-4.04 7.09,-7.11z"/>
  <path class="fil1" d="M246.36 117.33l15.09 -25.6c2.23,-3.79 5.25,-6.77 8.8,-8.8 3.57,-2.03 7.66,-3.12 12.05,-3.12l11.93 0c2.09,0 4.01,-0.28 5.82,-0.84 1.82,-0.57 3.57,-1.44 5.27,-2.61l29.82 -20.59c2.1,-1.45 4.26,-2.52 6.53,-3.23 2.28,-0.71 4.67,-1.06 7.21,-1.06l92.2 0c3.39,0 6.56,0.63 9.5,1.87 2.91,1.24 5.56,3.08 7.91,5.53l59.58 61.98 -273.78 0 2.08 -3.52zm19.11 -23.24l-13.01 22.08 254.63 0 -51.96 -54.06c-1.9,-1.98 -4.04,-3.48 -6.37,-4.47 -2.33,-0.99 -4.9,-1.49 -7.67,-1.49l-92.2 0c-2.09,0 -4.01,0.27 -5.82,0.84 -1.82,0.57 -3.57,1.44 -5.27,2.61l-29.82 20.59c-2.1,1.45 -4.26,2.52 -6.53,3.23 -2.29,0.71 -4.67,1.06 -7.21,1.06l-11.93 0c-3.57,0 -6.88,0.87 -9.73,2.49 -2.86,1.64 -5.29,4.04 -7.09,7.11z"/>
  <path class="fil1" d="M176.19 290.27l408.58 0 0 4.69 -408.58 0 0 -4.69z"/>
  <path class="fil1" d="M378.14 571.87l0 -558.51 4.69 0 0 558.51 -4.69 0z"/>
  <path class="fil0" d="M341.32 260.58l-148.85 -133.7 -126.84 0 0 -4.68 127.73 0 1.56 0.6 149.52 134.3 -3.13 3.48z"/>
  <path class="fil0" d="M151.41 126.28l-54.6 -49.05 -81.78 -0.55 0.02 -4.67 82.68 0.56 1.55 0.59 55.26 49.64 -3.13 3.48z"/>
  <circle class="fil2" cx="15.03" cy="74.35" r="10.99"/>
  <circle class="fil2" cx="65.63" cy="124.54" r="10.99"/>
  <path class="fil0" d="M406.4 232.08l60.5 -168.28 153.91 0 0 4.69 -150.64 0 -59.38 165.17 -4.39 -1.57z"/>
  <path class="fil0" d="M501.64 65.42l18.49 -56.25 143.98 -0.51 0 4.67 -140.58 0.5 -17.43 53.04 -4.45 -1.44z"/>
  <circle class="fil2" cx="664.11" cy="10.99" r="10.99"/>
  <circle class="fil2" cx="620.81" cy="66.14" r="10.99"/>
  <path class="fil0" d="M273.24 338.95l-122.73 114.12 -1.59 0.63 -88.12 0 0 -4.68 87.21 0 122.04 -113.5 3.18 3.42z"/>
  <circle class="fil2" cx="60.8" cy="451.37" r="10.99"/>
  <circle class="fil2" cx="651.36" cy="504.66" r="10.99"/>
  <path class="fil1" d="M219.05 113.82l322.86 0c4.01,0 7.78,0.77 11.26,2.29 3.47,1.51 6.6,3.76 9.33,6.71l64.88 69.98c2.49,2.69 4.37,5.63 5.62,8.83 1.26,3.21 1.89,6.64 1.89,10.28l0 162.5c0,3.66 -0.64,7.12 -1.94,10.37 -1.28,3.23 -3.18,6.19 -5.7,8.87l-64.78 68.89c-2.73,2.9 -5.84,5.1 -9.29,6.6 -3.47,1.5 -7.21,2.26 -11.17,2.26l-323.06 0c-3.96,0 -7.7,-0.76 -11.17,-2.26 -3.45,-1.49 -6.57,-3.7 -9.29,-6.6l-64.78 -68.89c-2.54,-2.7 -4.45,-5.66 -5.72,-8.87 -1.27,-3.26 -1.92,-6.71 -1.92,-10.37l0 -162.5c0,-3.64 0.63,-7.07 1.89,-10.28 1.24,-3.17 3.12,-6.11 5.62,-8.81l64.88 -70c2.73,-2.95 5.86,-5.19 9.33,-6.71 3.48,-1.52 7.25,-2.29 11.26,-2.29zm322.86 9.37l-322.86 0c-2.75,0 -5.27,0.5 -7.53,1.49 -2.27,0.99 -4.36,2.5 -6.22,4.51l-64.88 69.98c-1.67,1.79 -2.93,3.75 -3.76,5.87 -0.82,2.09 -1.23,4.38 -1.23,6.87l0 162.5c0,2.54 0.41,4.85 1.24,6.93 0.86,2.13 2.14,4.1 3.84,5.91l64.78 68.89c1.86,1.98 3.94,3.47 6.18,4.44 2.23,0.96 4.74,1.46 7.47,1.46l323.06 0c2.74,0 5.24,-0.49 7.47,-1.46 2.25,-0.97 4.32,-2.46 6.18,-4.44l64.78 -68.89c1.72,-1.83 3,-3.8 3.84,-5.91 0.83,-2.08 1.24,-4.4 1.24,-6.93l0 -162.5c0,-2.49 -0.41,-4.79 -1.23,-6.87 -0.82,-2.1 -2.08,-4.05 -3.76,-5.87l-64.88 -69.98c-1.86,-2.01 -3.95,-3.51 -6.22,-4.51 -2.26,-0.99 -4.78,-1.49 -7.53,-1.49z"/>
  <path class="fil2" d="M286.63 155.31c75.75,0 137.16,61.41 137.16,137.16 0,75.75 -61.41,137.16 -137.16,137.16 -75.75,0 -137.16,-61.41 -137.16,-137.16 0,-75.75 61.41,-137.16 137.16,-137.16z"/>
  <path class="fil3" d="M286.63 168.47c68.48,0 124,55.52 124,124 0,68.48 -55.51,124 -124,124 -68.48,0 -124,-55.52 -124,-124 0,-68.49 55.52,-124 124,-124z"/>
  <g style="clip-path:url(#id0)">
   <g id="_1787161322672">
    <path id="_1" class="fil4" d="M286.97 99.7l0 161.22 -0.71 0 0 -161.22 0.71 0zm-13.15 0.42l10.99 160.84 -0.71 0.05 -10.99 -160.84 0.71 -0.05zm-15.88 1.72l24.27 159.38 -0.7 0.1 -24.27 -159.38 0.7 -0.1zm-15.68 3.02l37.38 156.82 -0.69 0.16 -37.38 -156.82 0.69 -0.17zm-15.38 4.32l50.23 153.19 -0.68 0.22 -50.23 -153.19 0.68 -0.22zm-14.97 5.57l62.74 148.51 -0.65 0.28 -62.74 -148.51 0.65 -0.28zm-14.45 6.79l74.81 142.8 -0.63 0.33 -74.81 -142.8 0.63 -0.33zm-13.84 7.96l86.37 136.12 -0.6 0.38 -86.37 -136.12 0.6 -0.38zm-13.13 9.08l97.35 128.5 -0.57 0.43 -97.35 -128.5 0.57 -0.43zm-12.34 10.14l107.65 120.01 -0.53 0.47 -107.65 -120.01 0.53 -0.47zm-11.46 11.12l117.21 110.68 -0.49 0.52 -117.21 -110.68 0.49 -0.52zm-10.5 12.04l125.97 100.6 -0.44 0.55 -125.97 -100.6 0.44 -0.55zm-9.46 12.86l133.86 89.83 -0.39 0.59 -133.87 -89.83 0.39 -0.59zm-8.37 13.6l140.84 78.44 -0.34 0.62 -140.84 -78.44 0.34 -0.62zm-7.21 14.25l146.85 66.52 -0.29 0.64 -146.85 -66.52 0.29 -0.64zm-6.01 14.8l151.85 54.13 -0.23 0.67 -151.85 -54.13 0.23 -0.67zm-4.76 15.24l155.81 41.38 -0.18 0.68 -155.81 -41.38 0.18 -0.68zm-3.49 15.59l158.7 28.34 -0.12 0.7 -158.7 -28.34 0.12 -0.7zm-2.18 15.82l160.5 15.11 -0.06 0.7 -160.5 -15.11 0.06 -0.7zm-0.87 15.95l161.2 1.77 -0.01 0.71 -161.2 -1.77 0.01 -0.71zm0.46 15.96l160.8 -11.58 0.05 0.71 -160.8 11.58 -0.05 -0.71zm1.78 15.87l159.29 -24.85 0.11 0.7 -159.29 24.85 -0.11 -0.7zm3.08 15.67l156.68 -37.95 0.17 0.69 -156.68 37.95 -0.17 -0.69zm4.37 15.36l153.01 -50.79 0.22 0.67 -153.01 50.79 -0.22 -0.67zm5.63 14.95l148.28 -63.28 0.28 0.65 -148.28 63.28 -0.28 -0.65zm6.85 14.43l142.53 -75.33 0.33 0.63 -142.53 75.33 -0.33 -0.63zm8.01 13.81l135.81 -86.88 0.38 0.6 -135.81 86.88 -0.38 -0.6zm9.13 13.1l128.15 -97.82 0.43 0.56 -128.15 97.82 -0.43 -0.56zm10.19 12.3l119.61 -108.09 0.47 0.52 -119.61 108.09 -0.47 -0.52zm11.16 11.42l110.26 -117.62 0.52 0.49 -110.25 117.62 -0.52 -0.49zm12.08 10.45l100.14 -126.34 0.55 0.44 -100.14 126.34 -0.55 -0.44zm12.9 9.42l89.34 -134.2 0.59 0.39 -89.34 134.2 -0.59 -0.39zm13.63 8.32l77.93 -141.13 0.62 0.34 -77.93 141.13 -0.62 -0.34zm14.28 7.16l65.98 -147.09 0.64 0.29 -65.98 147.1 -0.64 -0.29zm14.82 5.96l53.58 -152.05 0.67 0.23 -53.58 152.05 -0.67 -0.23zm15.26 4.71l40.81 -155.96 0.68 0.18 -40.81 155.96 -0.68 -0.18zm15.6 3.43l27.76 -158.81 0.7 0.12 -27.76 158.81 -0.7 -0.12zm15.83 2.12l14.52 -160.56 0.71 0.06 -14.52 160.56 -0.7 -0.06zm15.95 0.81l1.18 -161.21 0.71 0 -1.18 161.21 -0.71 -0zm15.96 -0.52l-12.17 -160.75 0.71 -0.06 12.17 160.76 -0.71 0.05zm15.87 -1.84l-25.43 -159.2 0.7 -0.11 25.43 159.19 -0.7 0.11zm15.66 -3.14l-38.52 -156.54 0.69 -0.17 38.52 156.54 -0.69 0.17zm15.35 -4.43l-51.35 -152.82 0.67 -0.23 51.35 152.82 -0.67 0.22zm14.93 -5.68l-63.82 -148.04 0.65 -0.28 63.82 148.04 -0.65 0.28zm14.4 -6.9l-75.85 -142.25 0.62 -0.33 75.85 142.25 -0.62 0.33zm13.78 -8.07l-87.37 -135.49 0.6 -0.38 87.37 135.49 -0.6 0.38zm13.07 -9.18l-98.28 -127.79 0.56 -0.43 98.29 127.79 -0.56 0.43zm12.26 -10.23l-108.52 -119.22 0.52 -0.48 108.52 119.22 -0.52 0.48zm11.38 -11.21l-118.02 -109.83 0.48 -0.52 118.02 109.83 -0.48 0.52zm10.41 -12.11l-126.71 -99.68 0.44 -0.56 126.71 99.68 -0.44 0.56zm9.37 -12.93l-134.52 -88.85 0.39 -0.59 134.52 88.85 -0.39 0.59zm8.27 -13.66l-141.41 -77.41 0.34 -0.62 141.41 77.41 -0.34 0.62zm7.11 -14.3l-147.34 -65.44 0.28 -0.64 147.34 65.44 -0.29 0.64zm5.9 -14.84l-152.25 -53.02 0.23 -0.67 152.25 53.02 -0.23 0.67zm4.65 -15.28l-156.11 -40.24 0.18 -0.68 156.11 40.24 -0.18 0.68zm3.37 -15.61l-158.91 -27.18 0.12 -0.7 158.91 27.18 -0.12 0.7zm2.07 -15.83l-160.61 -13.93 0.06 -0.71 160.61 13.93 -0.06 0.71zm0.75 -15.95l-161.21 -0.59 0 -0.71 161.21 0.59 0 0.71zm-0.58 -15.96l-160.71 12.76 -0.06 -0.71 160.71 -12.76 0.06 0.71zm-1.89 -15.86l-159.1 26.02 -0.11 -0.7 159.1 -26.02 0.11 0.7zm-3.2 -15.65l-156.4 39.1 -0.17 -0.69 156.4 -39.1 0.17 0.69zm-4.48 -15.33l-152.63 51.91 -0.23 -0.67 152.63 -51.91 0.23 0.67zm-5.74 -14.9l-147.81 64.36 -0.28 -0.65 147.81 -64.36 0.28 0.65zm-6.95 -14.38l-141.98 76.37 -0.34 -0.62 141.98 -76.37 0.34 0.62zm-8.12 -13.76l-135.17 87.87 -0.39 -0.59 135.17 -87.87 0.39 0.59zm-9.23 -13.03l-127.43 98.75 -0.43 -0.56 127.43 -98.75 0.43 0.56zm-10.27 -12.23l-118.82 108.96 -0.48 -0.52 118.82 -108.96 0.48 0.52zm-11.25 -11.33l-109.39 118.42 -0.52 -0.48 109.39 -118.42 0.52 0.48zm-12.15 -10.36l-99.21 127.07 -0.56 -0.44 99.22 -127.07 0.56 0.44zm-12.96 -9.32l-88.36 134.85 -0.59 -0.39 88.36 -134.85 0.59 0.39zm-13.69 -8.22l-76.89 141.7 -0.62 -0.34 76.89 -141.7 0.62 0.34zm-14.33 -7.06l-64.9 147.57 -0.65 -0.28 64.9 -147.57 0.65 0.28zm-14.86 -5.85l-52.46 152.44 -0.67 -0.23 52.46 -152.44 0.67 0.23zm-15.3 -4.6l-39.67 156.26 -0.69 -0.17 39.67 -156.26 0.69 0.17zm-15.62 -3.31l-26.6 159.01 -0.7 -0.12 26.6 -159.01 0.7 0.12zm-15.84 -2.01l-13.34 160.66 -0.71 -0.06 13.34 -160.66 0.71 0.06z"/>
   </g>
  </g>
  <path class="fil5" d="M286.63 168.47c68.48,0 124,55.52 124,124 0,68.48 -55.51,124 -124,124 -68.48,0 -124,-55.52 -124,-124 0,-68.49 55.52,-124 124,-124z"/>
  <path class="fil6 str0" d="M286.63 244.14c26.69,0 48.33,21.64 48.33,48.33 0,26.69 -21.64,48.33 -48.33,48.33 -26.69,0 -48.33,-21.64 -48.33,-48.33 0,-26.69 21.64,-48.33 48.33,-48.33z"/>
  <path class="fil7" d="M329.72 235.76c12.43,0 22.51,10.18 22.51,22.73 0,12.56 -10.08,22.73 -22.51,22.73 -12.43,0 -22.51,-10.18 -22.51,-22.73 0,-12.55 10.08,-22.73 22.51,-22.73z"/>
  <path class="fil8" d="M-0 341.05l239.59 -199.45c1.58,-1.23 3.32,-2.19 5.95,-2.19l277.3 0c2.5,0 3.86,0.46 5.87,2.12l187.39 152.76 54.08 0 0 18.68 -57.36 0c-2.13,0 -4.41,-0.97 -5.87,-2.12l-187.39 -152.76 -270.71 0 -248.85 207.16 0 -24.21z"/>
  <path class="fil8" d="M-0 379.56l180.19 0c2.39,0 4.24,0.69 6.17,2.37l54.84 48.46 279.54 0 117 -100.81c1.72,-1.39 3.48,-2.3 6.09,-2.3l88.98 0 0 18.68 -85.56 0 -117 100.81 -6.09 2.3 -286.45 0 -6.17 -2.37 -54.84 -48.46 -176.71 0 0 -18.68z"/>
 </g>
</svg>
