<?xml version="1.0" encoding="UTF-8"?>
<!DOCTYPE svg PUBLIC "-//W3C//DTD SVG 1.0//EN" "http://www.w3.org/TR/2001/REC-SVG-20010904/DTD/svg10.dtd">
<!-- Creator: CorelDRAW -->
<svg xmlns="http://www.w3.org/2000/svg" xml:space="preserve" width="2.26666in" height="2.26667in" version="1.0" style="shape-rendering:geometricPrecision; text-rendering:geometricPrecision; image-rendering:optimizeQuality; fill-rule:evenodd; clip-rule:evenodd"
viewBox="0 0 2522.83 2522.83"
 xmlns:xlink="http://www.w3.org/1999/xlink"
 xmlns:xodm="http://www.corel.com/coreldraw/odm/2003">
 <defs>
  <style type="text/css">
   <![CDATA[
    .str0 {stroke:black;stroke-width:7.42;stroke-miterlimit:2.61313}
    .fil6 {fill:none}
    .fil7 {fill:black}
    .fil0 {fill:#10439F}
    .fil3 {fill:#874CCC}
    .fil2 {fill:#874CCC;fill-rule:nonzero}
    .fil8 {fill:#C65BCF;fill-rule:nonzero}
    .fil1 {fill:#F27BBD;fill-rule:nonzero}
    .fil9 {fill:#FF9CD2;fill-opacity:0.341176}
    .fil4 {fill:url(#id1)}
    .fil5 {fill:url(#id2);fill-rule:nonzero}
   ]]>
  </style>
   <clipPath id="id0">
    <path d="M1399 936.03c96.68,52.79 162.27,155.38 162.27,273.29 0,171.86 -139.32,311.18 -311.17,311.18 -171.85,0 -311.17,-139.32 -311.17,-311.18 0,-117.91 65.58,-220.5 162.27,-273.29l297.79 0z"/>
   </clipPath>
  <radialGradient id="id1" gradientUnits="userSpaceOnUse" gradientTransform="matrix(1.10614 -5.63289E-05 4.22464E-05 1.10614 -133 -128)" cx="1250.1" cy="1210.73" r="311.17" fx="1250.1" fy="1210.73">
   <stop offset="0" style="stop-opacity:1; stop-color:#F27BBD"/>
   <stop offset="1" style="stop-opacity:1; stop-color:#C65BCF"/>
  </radialGradient>
  <radialGradient id="id2" gradientUnits="userSpaceOnUse" gradientTransform="matrix(0.999983 -3.62332E-05 3.62332E-05 1 0 0)" cx="1250.1" cy="1209.34" r="503.78" fx="1250.1" fy="1209.34">
   <stop offset="0" style="stop-opacity:1; stop-color:#F27BBD"/>
   <stop offset="1" style="stop-opacity:1; stop-color:#A93EB3"/>
  </radialGradient>
 </defs>
 <g id="Layer_x0020_1">
  <metadata id="CorelCorpID_0Corel-Layer"/>
  <rect class="fil0" x="-0" y="-0" width="2522.83" height="2522.83"/>
  <path class="fil1" d="M1579.15 1707.86l-37.01 62.81c-5.48,9.31 -12.88,16.62 -21.59,21.6 -8.76,4.99 -18.8,7.66 -29.56,7.66l-29.26 0c-5.13,0 -9.85,0.67 -14.29,2.06 -4.47,1.39 -8.75,3.52 -12.94,6.41l-73.16 50.52c-5.16,3.57 -10.46,6.2 -16.03,7.93 -5.6,1.75 -11.45,2.6 -17.69,2.6l-226.22 0c-8.31,0 -16.11,-1.53 -23.3,-4.59 -7.15,-3.04 -13.65,-7.56 -19.41,-13.57l-146.19 -152.08 671.73 0 -5.09 8.65zm-46.89 57.02l31.92 -54.17 -624.73 0 127.5 132.64c4.68,4.86 9.92,8.53 15.64,10.96 5.71,2.42 12.01,3.65 18.81,3.65l226.22 0c5.12,0 9.85,-0.67 14.29,-2.06 4.48,-1.39 8.76,-3.52 12.94,-6.41l73.16 -50.52c5.17,-3.56 10.46,-6.2 16.03,-7.93 5.61,-1.75 11.46,-2.6 17.69,-2.6l29.26 0c8.76,0 16.87,-2.13 23.86,-6.12 7.02,-4.02 12.98,-9.92 17.41,-17.44z"/>
  <path class="fil1" d="M921.05 847.74l37.01 -62.81c5.48,-9.31 12.88,-16.62 21.59,-21.6 8.76,-4.99 18.8,-7.66 29.56,-7.66l29.26 0c5.13,0 9.85,-0.67 14.29,-2.06 4.47,-1.39 8.76,-3.52 12.94,-6.41l73.16 -50.52c5.16,-3.56 10.46,-6.2 16.03,-7.94 5.6,-1.75 11.45,-2.6 17.69,-2.6l226.22 0c8.31,0 16.11,1.53 23.3,4.59 7.15,3.04 13.65,7.57 19.41,13.57l146.18 152.08 -671.73 0 5.1 -8.65zm46.88 -57.02l-31.92 54.17 624.73 0 -127.5 -132.64c-4.68,-4.86 -9.91,-8.53 -15.64,-10.96 -5.72,-2.43 -12.02,-3.65 -18.81,-3.65l-226.22 0c-5.12,0 -9.85,0.67 -14.29,2.06 -4.47,1.39 -8.75,3.53 -12.94,6.42l-73.16 50.52c-5.16,3.56 -10.46,6.19 -16.03,7.93 -5.61,1.74 -11.46,2.6 -17.69,2.6l-29.26 0c-8.76,0 -16.87,2.13 -23.86,6.12 -7.02,4.02 -12.98,9.92 -17.41,17.43z"/>
  <path class="fil1" d="M748.87 1272.05l1002.46 0 0 11.49 -1002.46 0 0 -11.49z"/>
  <path class="fil1" d="M1244.35 1962.96l0 -1370.32 11.49 0 0 1370.32 -11.49 0z"/>
  <path class="fil2" d="M1154.03 1199.21l-365.21 -328.03 -311.2 0 0 -11.49 313.39 0 3.84 1.48 366.85 329.51 -7.67 8.54z"/>
  <path class="fil2" d="M688.07 869.71l-133.97 -120.34 -200.65 -1.35 0.04 -11.45 202.85 1.37 3.82 1.45 135.58 121.79 -7.68 8.54z"/>
  <circle class="fil3" cx="353.46" cy="742.29" r="26.96"/>
  <circle class="fil3" cx="477.62" cy="865.44" r="26.96"/>
  <path class="fil2" d="M1313.68 1129.28l148.43 -412.88 377.63 0 0 11.49 -369.6 0 -145.69 405.24 -10.78 -3.86z"/>
  <path class="fil2" d="M1547.37 720.38l45.37 -138.01 353.25 -1.26 0 11.45 -344.93 1.24 -42.78 130.14 -10.91 -3.55z"/>
  <circle class="fil3" cx="1945.98" cy="586.83" r="26.96"/>
  <circle class="fil3" cx="1839.74" cy="722.15" r="26.96"/>
  <path class="fil2" d="M986.98 1391.5l-301.11 280.01 -3.9 1.55 -216.21 0 0 -11.49 213.97 0 299.44 -278.46 7.81 8.4z"/>
  <circle class="fil3" cx="465.77" cy="1667.3" r="26.96"/>
  <path class="fil2" d="M1377.58 1516.98l269.93 275.33 276.08 0 0 11.49 -280.87 0 -273.32 -278.79 8.17 -8.04z"/>
  <circle class="fil3" cx="1914.71" cy="1798.05" r="26.96"/>
  <path class="fil1" d="M854.03 839.14l792.14 0c9.84,0 19.09,1.89 27.64,5.63 8.51,3.72 16.19,9.22 22.89,16.45l159.18 171.69c6.12,6.59 10.71,13.81 13.79,21.66 3.09,7.88 4.64,16.28 4.64,25.22l0 398.69c0,8.98 -1.59,17.46 -4.75,25.45 -3.15,7.93 -7.82,15.19 -14,21.77l-158.94 169.02c-6.68,7.11 -14.32,12.52 -22.8,16.19 -8.51,3.68 -17.69,5.54 -27.41,5.54l-792.62 0c-9.72,0 -18.89,-1.86 -27.41,-5.54 -8.47,-3.67 -16.12,-9.08 -22.8,-16.19l-158.94 -169.02c-6.24,-6.63 -10.92,-13.89 -14.04,-21.77 -3.12,-8 -4.71,-16.48 -4.71,-25.45l0 -398.69c0,-8.93 1.54,-17.34 4.64,-25.22 3.05,-7.79 7.66,-15 13.79,-21.62l159.18 -171.74c6.71,-7.23 14.38,-12.73 22.89,-16.45 8.54,-3.73 17.8,-5.63 27.64,-5.63zm792.14 22.99l-792.14 0c-6.75,0 -12.94,1.23 -18.48,3.65 -5.58,2.44 -10.7,6.14 -15.26,11.06l-159.18 171.69c-4.11,4.39 -7.18,9.2 -9.21,14.39 -2.01,5.12 -3.01,10.75 -3.01,16.87l0 398.69c0,6.23 1.01,11.9 3.04,17.01 2.11,5.23 5.25,10.06 9.42,14.5l158.94 169.02c4.57,4.86 9.66,8.5 15.17,10.88 5.48,2.37 11.62,3.57 18.34,3.57l792.62 0c6.72,0 12.86,-1.21 18.34,-3.57 5.51,-2.38 10.6,-6.03 15.17,-10.88l158.94 -169.03c4.23,-4.49 7.37,-9.33 9.42,-14.5 2.03,-5.11 3.04,-10.79 3.04,-17.01l0 -398.69c0,-6.12 -1,-11.75 -3.01,-16.87 -2.02,-5.15 -5.09,-9.95 -9.22,-14.39l-159.18 -171.69c-4.56,-4.92 -9.68,-8.62 -15.26,-11.06 -5.54,-2.42 -11.73,-3.65 -18.48,-3.65z"/>
  <path class="fil3" d="M1459.33 936.03c82.05,62.92 134.97,161.91 134.97,273.29 0,190.09 -154.1,344.2 -344.2,344.2 -190.09,0 -344.19,-154.11 -344.19,-344.2 0,-111.38 52.92,-210.37 134.97,-273.29l418.45 0z"/>
  <path class="fil4" d="M1399 936.03c96.68,52.79 162.27,155.38 162.27,273.29 0,171.86 -139.32,311.18 -311.17,311.18 -171.85,0 -311.17,-139.32 -311.17,-311.18 0,-117.91 65.58,-220.5 162.27,-273.29l297.79 0z"/>
  <g style="clip-path:url(#id0)">
   <g id="_1787545684544">
    <path id="_1" class="fil5" d="M1250.98 725.59l0 404.56 -1.78 0 0 -404.56 1.78 0zm-32.99 1.07l27.58 403.6 -1.77 0.12 -27.58 -403.6 1.77 -0.12zm-39.84 4.32l60.89 399.94 -1.76 0.26 -60.9 -399.93 1.76 -0.26zm-39.35 7.59l93.79 393.53 -1.73 0.41 -93.79 -393.52 1.73 -0.42zm-38.58 10.83l126.04 384.41 -1.69 0.54 -126.04 -384.41 1.69 -0.55zm-37.56 13.98l157.43 372.66 -1.63 0.69 -157.43 -372.65 1.63 -0.69zm-36.27 17.05l187.73 358.35 -1.57 0.82 -187.73 -358.35 1.57 -0.82zm-34.73 19.98l216.74 341.58 -1.5 0.95 -216.74 -341.58 1.5 -0.95zm-32.96 22.8l244.27 322.46 -1.42 1.07 -244.28 -322.46 1.42 -1.07zm-30.97 25.44l270.13 301.15 -1.32 1.17 -270.13 -301.14 1.32 -1.18zm-28.75 27.92l294.13 277.75 -1.22 1.3 -294.13 -277.75 1.22 -1.3zm-26.34 30.2l316.11 252.45 -1.1 1.39 -316.11 -252.45 1.1 -1.39zm-23.75 32.28l335.92 225.43 -0.99 1.47 -335.92 -225.42 0.98 -1.48zm-20.99 34.14l353.43 196.84 -0.86 1.55 -353.43 -196.85 0.86 -1.55zm-18.09 35.75l368.5 166.91 -0.73 1.62 -368.5 -166.91 0.73 -1.62zm-15.08 37.13l381.05 135.84 -0.59 1.67 -381.05 -135.84 0.59 -1.68zm-11.95 38.25l390.99 103.83 -0.46 1.72 -390.99 -103.83 0.46 -1.72zm-8.75 39.11l398.25 71.11 -0.3 1.75 -398.25 -71.11 0.31 -1.75zm-5.48 39.7l402.77 37.9 -0.16 1.77 -402.77 -37.9 0.16 -1.77zm-2.17 40.02l404.52 4.44 -0.02 1.78 -404.52 -4.44 0.02 -1.78zm1.15 40.06l403.5 -29.06 0.13 1.77 -403.5 29.06 -0.13 -1.77zm4.46 39.83l399.71 -62.36 0.27 1.75 -399.71 62.36 -0.27 -1.75zm7.74 39.32l393.18 -95.23 0.42 1.73 -393.18 95.23 -0.42 -1.73zm10.97 38.54l383.95 -127.44 0.56 1.68 -383.95 127.44 -0.56 -1.68zm14.12 37.51l372.08 -158.79 0.7 1.63 -372.08 158.79 -0.7 -1.63zm17.18 36.2l357.66 -189.04 0.82 1.57 -357.66 189.04 -0.83 -1.57zm20.11 34.66l340.79 -218 0.95 1.5 -340.79 218 -0.95 -1.5zm22.92 32.88l321.57 -245.46 1.08 1.41 -321.57 245.46 -1.08 -1.41zm25.56 30.87l300.15 -271.23 1.19 1.31 -300.15 271.23 -1.19 -1.31zm28.02 28.64l276.67 -295.14 1.3 1.22 -276.67 295.15 -1.3 -1.22zm30.3 26.23l251.29 -317.03 1.39 1.1 -251.29 317.03 -1.39 -1.1zm32.37 23.63l224.19 -336.74 1.48 0.97 -224.19 336.75 -1.48 -0.98zm34.21 20.87l195.54 -354.15 1.56 0.86 -195.54 354.15 -1.56 -0.86zm35.82 17.97l165.56 -369.12 1.62 0.72 -165.56 369.12 -1.62 -0.72zm37.19 14.94l134.44 -381.55 1.67 0.59 -134.44 381.56 -1.67 -0.59zm38.29 11.81l102.4 -391.37 1.71 0.45 -102.4 391.37 -1.72 -0.45zm39.14 8.6l69.66 -398.51 1.75 0.3 -69.66 398.51 -1.75 -0.3zm39.72 5.33l36.43 -402.9 1.77 0.16 -36.43 402.9 -1.77 -0.16zm40.02 2.03l2.96 -404.54 1.77 0.01 -2.96 404.54 -1.77 -0.01zm40.06 -1.3l-30.54 -403.39 1.77 -0.14 30.54 403.4 -1.77 0.13zm39.81 -4.61l-63.82 -399.48 1.75 -0.28 63.82 399.48 -1.75 0.28zm39.29 -7.88l-96.67 -392.83 1.73 -0.42 96.67 392.83 -1.73 0.42zm38.5 -11.11l-128.85 -383.48 1.68 -0.57 128.85 383.48 -1.69 0.57zm37.46 -14.26l-160.15 -371.5 1.63 -0.7 160.15 371.5 -1.63 0.7zm36.14 -17.31l-190.35 -356.97 1.57 -0.83 190.34 356.97 -1.56 0.83zm34.58 -20.24l-219.24 -339.99 1.49 -0.96 219.24 339.99 -1.5 0.96zm32.8 -23.04l-246.63 -320.67 1.4 -1.09 246.63 320.67 -1.4 1.09zm30.77 -25.67l-272.33 -299.16 1.31 -1.2 272.33 299.16 -1.31 1.2zm28.54 -28.13l-296.15 -275.59 1.21 -1.3 296.15 275.6 -1.21 1.29zm26.12 -30.39l-317.95 -250.14 1.1 -1.4 317.95 250.14 -1.1 1.4zm23.52 -32.46l-337.57 -222.96 0.98 -1.48 337.57 222.96 -0.98 1.48zm20.74 -34.29l-354.86 -194.25 0.85 -1.56 354.86 194.25 -0.85 1.56zm17.84 -35.89l-369.72 -164.21 0.71 -1.62 369.72 164.21 -0.71 1.62zm14.8 -37.24l-382.04 -133.05 0.58 -1.67 382.04 133.05 -0.58 1.67zm11.67 -38.34l-391.75 -100.97 0.43 -1.72 391.75 100.97 -0.44 1.72zm8.45 -39.17l-398.76 -68.2 0.3 -1.75 398.76 68.2 -0.3 1.75zm5.19 -39.73l-403.04 -34.96 0.15 -1.77 403.04 34.95 -0.15 1.78zm1.88 -40.04l-404.55 -1.48 0 -1.77 404.55 1.48 0 1.77zm-1.44 -40.05l-403.28 32.01 -0.14 -1.77 403.28 -32.01 0.14 1.77zm-4.75 -39.8l-399.25 65.28 -0.28 -1.75 399.25 -65.28 0.29 1.75zm-8.03 -39.26l-392.47 98.1 -0.43 -1.72 392.47 -98.11 0.43 1.73zm-11.24 -38.46l-383.01 130.26 -0.57 -1.68 383.01 -130.26 0.57 1.68zm-14.4 -37.4l-370.91 161.51 -0.71 -1.63 370.91 -161.51 0.71 1.63zm-17.44 -36.08l-356.27 191.65 -0.84 -1.56 356.27 -191.66 0.84 1.57zm-20.37 -34.52l-339.19 220.49 -0.97 -1.49 339.19 -220.49 0.97 1.49zm-23.15 -32.71l-319.77 247.81 -1.09 -1.41 319.77 -247.81 1.09 1.41zm-25.78 -30.68l-298.16 273.42 -1.21 -1.3 298.16 -273.43 1.21 1.31zm-28.23 -28.44l-274.51 297.17 -1.3 -1.21 274.51 -297.16 1.31 1.2zm-30.49 -26l-248.97 318.87 -1.4 -1.1 248.97 -318.87 1.4 1.1zm-32.54 -23.4l-221.72 338.38 -1.49 -0.98 221.72 -338.38 1.49 0.98zm-34.36 -20.62l-192.95 355.57 -1.56 -0.85 192.95 -355.57 1.56 0.85zm-35.95 -17.71l-162.86 370.32 -1.62 -0.72 162.86 -370.32 1.63 0.71zm-37.29 -14.67l-131.65 382.53 -1.68 -0.58 131.65 -382.53 1.68 0.58zm-38.38 -11.54l-99.54 392.11 -1.73 -0.43 99.54 -392.11 1.73 0.43zm-39.21 -8.31l-66.74 399.01 -1.75 -0.3 66.74 -399.01 1.75 0.29zm-39.76 -5.04l-33.48 403.16 -1.77 -0.14 33.48 -403.16 1.77 0.14z"/>
   </g>
  </g>
  <path class="fil6" d="M1399 936.03c96.68,52.79 162.27,155.38 162.27,273.29 0,171.86 -139.32,311.18 -311.17,311.18 -171.85,0 -311.17,-139.32 -311.17,-311.18 0,-117.91 65.58,-220.5 162.27,-273.29l297.79 0z"/>
  <path class="fil7 str0" d="M1250.11 1088.05c66.98,0 121.28,54.3 121.28,121.28 0,66.98 -54.3,121.28 -121.28,121.28 -66.98,0 -121.28,-54.3 -121.28,-121.28 0,-66.98 54.3,-121.28 121.28,-121.28z"/>
  <path class="fil8" d="M316.58 1396.64l587.84 -489.35c3.88,-3.02 8.14,-5.37 14.6,-5.37l680.36 0c6.13,0 9.47,1.13 14.41,5.2l459.77 374.81 132.69 0 0 45.84 -140.72 0c-5.22,0 -10.83,-2.38 -14.41,-5.2l-459.77 -374.81 -664.19 0 -610.57 508.28 0 -59.39z"/>
  <path class="fil8" d="M316.58 1491.13l442.1 0c5.87,0 10.41,1.68 15.13,5.82l134.56 118.89 685.86 0 287.07 -247.33c4.22,-3.41 8.54,-5.64 14.95,-5.64l218.32 0 0 45.84 -209.92 0 -287.07 247.33 -14.95 5.64 -702.81 0 -15.13 -5.82 -134.57 -118.89 -433.55 0 0 -45.84z"/>
  <path class="fil9" d="M1358.24 1067.03c31.2,0 56.49,25.54 56.49,57.05 0,31.51 -25.29,57.05 -56.49,57.05 -31.2,0 -56.49,-25.54 -56.49,-57.05 0,-31.51 25.29,-57.05 56.49,-57.05z"/>
 </g>
</svg>
